<?xml version="1.0" encoding="UTF-8"?>
<svg xmlns="http://www.w3.org/2000/svg" xmlns:xlink="http://www.w3.org/1999/xlink" viewBox="0 0 1193 547.5">
  <defs>
    <style>
      .cls-1 {
        fill: #b089d9;
      }

      .cls-1, .cls-2, .cls-3, .cls-4, .cls-5, .cls-6, .cls-7, .cls-8 {
        stroke-width: 0px;
      }

      .cls-2 {
        fill: #ffe12d;
      }

      .cls-4 {
        fill: none;
      }

      .cls-5 {
        fill: #ff4500;
      }

      .cls-6 {
        fill: #71a95a;
      }

      .cls-7 {
        fill: #87ceeb;
      }

      .cls-8 {
        fill: #011a21;
      }

      .cls-9 {
        clip-path: url(#clippath);
      }

      .cls-10 {
        opacity: .71;
      }
    </style>
    <clipPath id="clippath">
      <rect class="cls-4" x=".14" y="2.44" width="1193" height="548"/>
    </clipPath>
  </defs>
  <g id="Layer_1" data-name="Layer 1">
    <rect class="cls-2" width="1193" height="549"/>
    <g class="cls-9">
      <g class="cls-10">
        <g>
          <g>
            <path class="cls-5" d="M434.19,282.83c-2.09-.97-4.22-1.84-6.39-2.59-2.17-.75-4.38-1.39-6.63-1.91-2.25-.52-4.55-.91-6.89-1.18-2.34-.27-4.73-.4-7.16-.4l10.1,4.29c2.28,0,4.52.13,6.72.38,2.2.25,4.35.62,6.46,1.11s4.19,1.09,6.22,1.79c2.04.71,4.03,1.52,6,2.43l-8.42-3.91"/>
            <path class="cls-5" d="M416.87,274.79c-2.36-1.1-4.76-2.07-7.21-2.92s-4.94-1.57-7.48-2.15-5.13-1.03-7.77-1.33-5.33-.45-8.08-.45l12.75,5.41c2.55,0,5.06.14,7.51.42s4.87.7,7.23,1.24,4.68,1.21,6.96,2,4.51,1.7,6.71,2.72l-10.63-4.94"/>
            <path class="cls-5" d="M394.48,264.39c-10.45-4.31-18-7.42-35.02-7.87l16.59,7.05c2.9,0,5.74.16,8.53.48,2.79.32,5.52.79,8.21,1.41,2.68.62,5.32,1.38,7.9,2.28,2.59.9,5.12,1.93,7.62,3.09l-13.83-6.42"/>
            <path class="cls-5" d="M364.81,250.61c-3.16-1.47-6.39-2.78-9.67-3.92-3.28-1.14-6.63-2.11-10.03-2.89-3.41-.78-6.88-1.38-10.42-1.79-3.54-.4-7.15-.61-10.83-.61l22.39,9.51c12.27.61,20.38,1.01,37.22,8.36l-18.66-8.67"/>
            <path class="cls-5" d="M322.45,230.93c-3.82-1.77-7.71-3.36-11.67-4.73-3.96-1.37-8-2.54-12.11-3.49s-8.3-1.67-12.57-2.15c-4.27-.49-8.63-.74-13.07-.73l32,13.59c3.96,0,7.85.22,11.66.65s7.55,1.08,11.22,1.92c3.67.84,7.27,1.88,10.8,3.11s7,2.64,10.41,4.22l-26.67-12.39"/>
          </g>
          <path class="cls-5" d="M407.1,276.75c-1.65-.05-1.89-.05-2.12-.05s-.47,0-.7,0c-10.25,0-19.97,2.25-29.16,6.13-9.19,3.88-17.85,9.37-25.97,15.86-8.12,6.49-15.71,13.96-22.76,21.79-7.05,7.83-13.56,16.02-19.53,23.93-10,13.24-19.78,26.7-29.34,40.36-9.56,13.66-18.88,27.51-27.96,41.53-9.08,14.02-17.92,28.21-26.5,42.55-8.58,14.34-16.89,28.82-24.93,43.42-1.49,2.71-2.94,5.4-4.27,8.11-1.33,2.7-2.55,5.42-3.58,8.16-1.03,2.74-1.86,5.51-2.43,8.32-.57,2.81-.87,5.67-.82,8.59.09,5.92,1.57,11.36,4.04,16.29,2.47,4.93,5.93,9.34,9.97,13.22,4.05,3.88,8.68,7.22,13.51,9.99,4.82,2.77,9.84,4.98,14.64,6.6,4.38,1.48,8.82,2.7,13.31,3.7,4.49,1,9.02,1.78,13.59,2.38,4.57.6,9.17,1.01,13.8,1.27s9.28.38,13.95.38c3.76,0,7.52-.07,11.29-.2s7.54-.31,11.31-.53c3.77-.22,7.54-.47,11.29-.75s7.51-.56,11.24-.85c3.7-.29,7.4-.57,11.11-.85,3.71-.27,7.43-.52,11.14-.74,3.72-.22,7.43-.4,11.15-.53,3.71-.13,7.42-.2,11.11-.2,6.77,0,13.5.24,20.16.84,6.66.6,13.25,1.56,19.74,2.98,6.49,1.43,12.87,3.32,19.12,5.8,6.25,2.48,12.36,5.54,18.3,9.29,4.48,2.89,8.7,6.34,12.56,10.22,3.87,3.89,7.39,8.21,10.48,12.84,3.09,4.63,5.74,9.57,7.88,14.7,2.14,5.13,3.77,10.44,4.79,15.8.35,1.83.65,3.79.87,5.86.22,2.07.36,4.24.39,6.5.02,2.26-.07,4.59-.32,6.98-.25,2.39-.65,4.82-1.24,7.29l5.19-21.63c.55-2.31.93-4.6,1.16-6.83.23-2.24.32-4.43.3-6.54s-.16-4.16-.36-6.1c-.21-1.94-.49-3.78-.82-5.49-.96-5.03-2.49-10.01-4.49-14.82-2.01-4.81-4.5-9.44-7.39-13.78s-6.2-8.4-9.82-12.04c-3.63-3.64-7.58-6.88-11.78-9.59-5.57-3.52-11.3-6.39-17.16-8.71-5.86-2.32-11.85-4.1-17.93-5.44-6.09-1.34-12.27-2.23-18.52-2.8-6.25-.56-12.56-.79-18.91-.79-3.47,0-6.94.07-10.42.19-3.48.12-6.97.29-10.45.49s-6.97.44-10.45.69-6.96.52-10.42.79c-3.5.27-7.02.54-10.54.8-3.52.26-7.06.5-10.59.7-3.54.21-7.07.38-10.61.5-3.54.12-7.07.19-10.59.19-4.38,0-8.74-.11-13.08-.35-4.34-.25-8.66-.63-12.94-1.19-4.28-.56-8.54-1.29-12.74-2.23-4.21-.94-8.37-2.08-12.48-3.47-4.5-1.52-9.2-3.59-13.73-6.19-4.52-2.6-8.87-5.73-12.67-9.37-3.79-3.64-7.04-7.78-9.35-12.4s-3.7-9.72-3.79-15.28c-.04-2.74.24-5.42.77-8.06.53-2.64,1.32-5.23,2.28-7.8.96-2.57,2.11-5.12,3.36-7.65s2.61-5.07,4.01-7.6c7.54-13.69,15.34-27.28,23.38-40.72,8.04-13.45,16.33-26.76,24.85-39.91,8.52-13.15,17.26-26.14,26.23-38.95,8.96-12.81,18.14-25.43,27.51-37.85,5.6-7.42,11.71-15.1,18.32-22.44,6.61-7.34,13.73-14.35,21.34-20.44,7.62-6.08,15.74-11.24,24.35-14.87,8.62-3.63,17.73-5.75,27.35-5.75,2.21.04,2.43.04,2.65.05l-10.1-4.29"/>
          <path class="cls-5" d="M386.32,267.92c-1.86-.05-2.13-.06-2.39-.06s-.53,0-.79,0c-11.56,0-22.52,2.54-32.89,6.91-10.36,4.37-20.13,10.57-29.29,17.89-9.16,7.31-17.72,15.75-25.67,24.58-7.95,8.83-15.29,18.07-22.03,26.99-11.27,14.93-22.31,30.11-33.08,45.52-10.78,15.4-21.3,31.02-31.54,46.84-10.24,15.81-20.21,31.82-29.88,47.99-9.67,16.17-19.05,32.5-28.12,48.97-1.68,3.05-3.31,6.09-4.82,9.14-1.5,3.05-2.88,6.11-4.04,9.2-1.16,3.09-2.1,6.21-2.74,9.38s-.98,6.4-.93,9.69c.1,6.68,1.77,12.81,4.55,18.37,2.78,5.56,6.68,10.54,11.25,14.91,4.56,4.37,9.79,8.14,15.23,11.27,5.44,3.13,11.09,5.62,16.51,7.44,4.94,1.67,9.95,3.04,15.01,4.17,5.06,1.13,10.17,2.01,15.33,2.68,5.15.67,10.35,1.14,15.57,1.43,5.22.3,10.47.42,15.73.42,4.24,0,8.49-.08,12.74-.23s8.51-.35,12.76-.6c4.25-.25,8.5-.54,12.74-.84,4.24-.31,8.47-.64,12.68-.96,4.17-.32,8.35-.65,12.53-.95s8.38-.59,12.57-.83c4.19-.24,8.38-.45,12.57-.59s8.37-.22,12.53-.22c7.63,0,15.22.28,22.74.95,7.51.68,14.95,1.76,22.27,3.36,7.32,1.61,14.52,3.75,21.56,6.54,7.05,2.79,13.94,6.24,20.64,10.48,5.05,3.26,9.81,7.15,14.17,11.53,4.36,4.38,8.33,9.26,11.81,14.48,3.48,5.22,6.48,10.8,8.89,16.58,2.41,5.78,4.25,11.77,5.4,17.82.39,2.06.73,4.27.99,6.6.25,2.33.41,4.79.44,7.33.03,2.54-.08,5.18-.36,7.87s-.73,5.44-1.4,8.22l6.54-27.29c.62-2.58,1.04-5.14,1.3-7.65.26-2.5.36-4.95.33-7.32-.03-2.37-.17-4.65-.41-6.82-.23-2.17-.55-4.23-.92-6.14-1.08-5.63-2.78-11.21-5.03-16.58-2.25-5.38-5.03-10.56-8.27-15.42-3.24-4.86-6.93-9.39-10.99-13.47-4.06-4.08-8.48-7.7-13.18-10.73-6.23-3.94-12.64-7.15-19.2-9.75-6.56-2.6-13.26-4.59-20.06-6.09-6.81-1.5-13.73-2.5-20.72-3.13-6.99-.63-14.05-.89-21.16-.89-3.88,0-7.77.08-11.66.21-3.89.13-7.8.32-11.7.55s-7.8.49-11.7.78c-3.89.28-7.78.59-11.66.89-3.92.3-7.85.61-11.8.89-3.94.29-7.9.55-11.85.78-3.96.23-7.91.42-11.87.56-3.96.13-7.91.21-11.85.21-4.9,0-9.78-.12-14.64-.39-4.86-.28-9.69-.71-14.48-1.33-4.79-.63-9.55-1.44-14.26-2.5-4.71-1.05-9.37-2.33-13.97-3.88-5.04-1.7-10.3-4.01-15.36-6.92-5.06-2.91-9.93-6.42-14.17-10.49-4.25-4.07-7.87-8.7-10.47-13.88s-4.14-10.88-4.24-17.09c-.05-3.07.27-6.06.86-9.02s1.47-5.86,2.55-8.73c1.08-2.88,2.36-5.72,3.76-8.56,1.4-2.84,2.92-5.67,4.48-8.51,8.44-15.32,17.16-30.52,26.16-45.57,9-15.05,18.27-29.94,27.8-44.65,9.53-14.71,19.32-29.25,29.34-43.58,10.03-14.33,20.29-28.46,30.78-42.35,6.27-8.3,13.1-16.89,20.5-25.11,7.4-8.22,15.36-16.06,23.88-22.87,8.52-6.81,17.61-12.57,27.25-16.64,9.64-4.07,19.84-6.43,30.6-6.43,2.47.04,2.72.05,2.97.06l-12.75-5.41"/>
          <path class="cls-5" d="M359.46,256.52c-2.14-.06-2.44-.07-2.74-.07s-.61,0-.91,0c-13.25,0-25.82,2.91-37.71,7.93-11.88,5.01-23.08,12.12-33.58,20.51-10.5,8.39-20.31,18.05-29.43,28.18-9.12,10.13-17.54,20.71-25.26,30.94-12.93,17.12-25.58,34.53-37.93,52.19-12.36,17.66-24.42,35.57-36.16,53.7-11.74,18.13-23.17,36.48-34.26,55.02-11.09,18.54-21.84,37.27-32.24,56.15-1.92,3.5-3.8,6.98-5.52,10.48-1.73,3.5-3.3,7.01-4.63,10.55-1.33,3.54-2.41,7.12-3.14,10.76s-1.12,7.33-1.06,11.11c.12,7.66,2.03,14.69,5.22,21.06,3.19,6.37,7.66,12.08,12.9,17.1,5.23,5.02,11.23,9.33,17.46,12.92,6.24,3.59,12.72,6.44,18.93,8.53,5.67,1.91,11.41,3.49,17.21,4.79s11.66,2.3,17.57,3.07c5.91.77,11.86,1.3,17.85,1.64,5.99.34,12,.49,18.04.49,4.86,0,9.73-.09,14.6-.26,4.87-.17,9.75-.4,14.63-.69,4.87-.28,9.74-.61,14.6-.97,4.86-.35,9.71-.73,14.54-1.1,4.78-.37,9.57-.74,14.37-1.09,4.8-.35,9.61-.68,14.41-.96s9.61-.51,14.41-.68,9.59-.26,14.37-.26c8.75,0,17.46.32,26.07,1.09,8.61.78,17.14,2.01,25.53,3.86,8.39,1.84,16.65,4.29,24.72,7.5,8.08,3.2,15.98,7.16,23.66,12.02,5.79,3.74,11.25,8.2,16.25,13.22,5,5.02,9.55,10.61,13.55,16.6,3.99,5.99,7.43,12.38,10.2,19.01,2.77,6.63,4.87,13.49,6.2,20.44.45,2.36.84,4.9,1.13,7.57s.47,5.49.5,8.4c.03,2.92-.09,5.94-.41,9.02-.32,3.09-.84,6.24-1.6,9.42l8.52-35.52c.7-2.93,1.18-5.84,1.47-8.68.29-2.84.4-5.62.38-8.31-.03-2.69-.2-5.28-.46-7.74-.27-2.46-.63-4.8-1.04-6.97-1.22-6.39-3.16-12.72-5.71-18.82-2.55-6.1-5.71-11.99-9.39-17.5-3.68-5.52-7.87-10.66-12.48-15.29s-9.63-8.74-14.96-12.18c-7.07-4.47-14.35-8.12-21.79-11.07-7.44-2.95-15.05-5.21-22.77-6.91-7.73-1.7-15.58-2.84-23.51-3.55-7.93-.71-15.95-1.01-24.01-1.01-4.4,0-8.82.09-13.24.24-4.42.15-8.85.37-13.27.63-4.43.26-8.85.56-13.27.88-4.42.32-8.83.66-13.24,1.01-4.45.34-8.91.69-13.39,1.01-4.48.32-8.96.63-13.45.89-4.49.26-8.98.48-13.47.63-4.49.15-8.98.24-13.45.24-5.56,0-11.1-.13-16.61-.45s-11-.8-16.44-1.51c-5.44-.71-10.84-1.64-16.18-2.83-5.34-1.19-10.63-2.65-15.85-4.41-5.72-1.92-11.69-4.56-17.43-7.86-5.75-3.3-11.27-7.28-16.09-11.9-4.82-4.62-8.94-9.88-11.88-15.75-2.94-5.87-4.7-12.35-4.81-19.4-.05-3.48.3-6.88.98-10.23s1.67-6.65,2.9-9.91,2.68-6.5,4.26-9.72c1.59-3.22,3.31-6.43,5.09-9.65,9.57-17.39,19.48-34.64,29.69-51.72,10.21-17.08,20.74-33.98,31.56-50.68,10.82-16.7,21.92-33.2,33.31-49.46,11.38-16.27,23.03-32.3,34.94-48.07,7.11-9.42,14.87-19.17,23.26-28.5,8.4-9.33,17.43-18.23,27.1-25.95,9.67-7.72,19.98-14.27,30.93-18.89,10.94-4.62,22.52-7.3,34.73-7.3,2.8.05,3.08.06,3.37.07l-16.59-7.05"/>
          <path class="cls-5" d="M323.86,241.4c-2.5-.07-2.85-.08-3.21-.08s-.71,0-1.07,0c-15.5,0-30.2,3.41-44.09,9.27-13.89,5.86-26.98,14.17-39.26,23.98-12.28,9.81-23.75,21.11-34.41,32.95-10.66,11.84-20.5,24.22-29.53,36.18-15.12,20.02-29.91,40.37-44.36,61.02-14.45,20.65-28.55,41.59-42.28,62.8-13.73,21.2-27.09,42.66-40.06,64.34-12.97,21.68-25.54,43.58-37.7,65.66-2.25,4.09-4.44,8.17-6.46,12.26-2.02,4.09-3.86,8.19-5.41,12.34-1.55,4.14-2.82,8.33-3.68,12.58-.86,4.25-1.31,8.57-1.24,12.99.14,8.96,2.37,17.18,6.11,24.63,3.73,7.45,8.96,14.13,15.08,19.99,6.12,5.86,13.13,10.91,20.42,15.11,7.29,4.2,14.87,7.53,22.13,9.98,6.63,2.23,13.34,4.08,20.13,5.6,6.78,1.51,13.64,2.69,20.55,3.6,6.91.9,13.87,1.52,20.87,1.92,7,.4,14.04.57,21.09.57,5.68,0,11.38-.11,17.08-.3,5.7-.19,11.4-.47,17.1-.8s11.4-.72,17.08-1.13c5.68-.41,11.35-.85,17-1.29,5.59-.43,11.19-.87,16.8-1.28,5.61-.41,11.23-.79,16.85-1.12,5.62-.33,11.24-.6,16.85-.79,5.61-.19,11.22-.3,16.8-.3,10.23,0,20.41.37,30.48,1.28,10.07.91,20.04,2.35,29.85,4.51,9.81,2.16,19.46,5.02,28.91,8.77,9.45,3.75,18.69,8.37,27.67,14.05,6.77,4.37,13.15,9.58,19,15.46,5.85,5.88,11.17,12.41,15.84,19.41,4.67,7,8.69,14.47,11.92,22.22,3.24,7.75,5.69,15.78,7.25,23.9.53,2.76.99,5.73,1.32,8.85s.55,6.42.59,9.83-.1,6.94-.48,10.55c-.37,3.61-.98,7.3-1.87,11.02l11.49-47.92c.81-3.38,1.36-6.73,1.7-10.01.34-3.28.47-6.49.43-9.59-.03-3.1-.23-6.09-.53-8.93-.31-2.84-.72-5.54-1.2-8.05-1.41-7.38-3.64-14.68-6.59-21.72-2.94-7.04-6.59-13.83-10.84-20.2-4.24-6.36-9.08-12.3-14.4-17.64-5.32-5.34-11.11-10.08-17.27-14.05-8.16-5.16-16.56-9.37-25.15-12.77-8.59-3.4-17.36-6.01-26.28-7.97-8.92-1.96-17.98-3.27-27.13-4.1-9.16-.82-18.41-1.16-27.71-1.16-5.08,0-10.17.1-15.27.27s-10.21.42-15.32.72-10.22.65-15.32,1.02c-5.1.37-10.19.77-15.27,1.16-5.13.4-10.29.8-15.45,1.17-5.16.37-10.34.73-15.52,1.03-5.18.3-10.37.55-15.55.73s-10.36.28-15.52.28c-6.41,0-12.81-.16-19.17-.52s-12.69-.93-18.97-1.74c-6.28-.82-12.51-1.89-18.68-3.27-6.17-1.38-12.27-3.05-18.29-5.09-6.6-2.22-13.49-5.26-20.12-9.07-6.63-3.81-13-8.4-18.56-13.73-5.56-5.33-10.31-11.4-13.71-18.17-3.39-6.77-5.43-14.25-5.55-22.39-.06-4.01.35-7.94,1.13-11.81.78-3.87,1.93-7.67,3.34-11.44,1.41-3.77,3.09-7.5,4.92-11.21s3.82-7.42,5.87-11.14c11.05-20.07,22.48-39.97,34.26-59.68,11.79-19.7,23.93-39.21,36.41-58.48,12.48-19.27,25.3-38.31,38.43-57.08,13.13-18.77,26.58-37.27,40.32-55.47,8.21-10.87,17.16-22.13,26.84-32.89,9.69-10.76,20.12-21.04,31.28-29.95,11.16-8.91,23.06-16.47,35.69-21.8,12.63-5.33,25.99-8.42,40.07-8.42,3.23.05,3.56.07,3.88.08l-22.39-9.51"/>
          <path class="cls-5" d="M273.03,219.82c-3.01-.09-3.44-.09-3.87-.1s-.86,0-1.29,0c-18.7,0-36.44,4.11-53.21,11.18-16.77,7.07-32.56,17.1-47.38,28.94-14.82,11.84-28.66,25.47-41.53,39.76-12.86,14.29-24.75,29.23-35.64,43.67-18.24,24.16-36.09,48.72-53.53,73.64-17.44,24.92-34.45,50.2-51.03,75.78-16.57,25.59-32.7,51.48-48.35,77.65-15.65,26.16-30.82,52.59-45.49,79.23-2.71,4.94-5.36,9.86-7.79,14.79-2.43,4.94-4.66,9.89-6.53,14.89-1.87,5-3.4,10.05-4.44,15.18-1.04,5.13-1.58,10.35-1.5,15.68.17,10.81,2.87,20.73,7.37,29.72,4.5,8.99,10.81,17.05,18.2,24.13,7.38,7.08,15.84,13.17,24.64,18.23,8.8,5.06,17.95,9.09,26.71,12.04,8,2.7,16.1,4.93,24.29,6.75,8.19,1.83,16.46,3.25,24.8,4.34,8.34,1.09,16.74,1.84,25.19,2.32,8.45.48,16.94.69,25.45.69,6.86,0,13.73-.13,20.61-.37,6.88-.23,13.76-.57,20.64-.97s13.75-.87,20.61-1.36c6.86-.5,13.7-1.03,20.51-1.55,6.74-.52,13.51-1.05,20.28-1.54,6.77-.49,13.55-.95,20.34-1.35,6.78-.4,13.56-.73,20.34-.96,6.77-.23,13.54-.36,20.28-.36,12.35,0,24.63.44,36.79,1.54,12.16,1.1,24.18,2.84,36.02,5.44,11.84,2.6,23.49,6.06,34.89,10.58,11.4,4.52,22.55,10.1,33.39,16.96,8.18,5.27,15.87,11.57,22.93,18.66,7.06,7.09,13.48,14.97,19.12,23.43s10.48,17.47,14.39,26.82c3.91,9.35,6.87,19.04,8.74,28.84.64,3.33,1.19,6.91,1.6,10.68.41,3.77.66,7.74.71,11.86.04,4.12-.13,8.38-.58,12.73-.45,4.35-1.18,8.8-2.26,13.3l16.42-68.5c.96-4.01,1.61-7.98,2.01-11.86.4-3.88.55-7.69.51-11.36-.04-3.67-.27-7.21-.63-10.58-.36-3.37-.86-6.56-1.42-9.53-1.67-8.74-4.32-17.38-7.8-25.73-3.48-8.34-7.81-16.39-12.84-23.93-5.03-7.54-10.76-14.57-17.05-20.9-6.3-6.33-13.16-11.94-20.45-16.64-9.67-6.11-19.61-11.09-29.79-15.13-10.17-4.03-20.56-7.12-31.13-9.44-10.56-2.32-21.29-3.88-32.14-4.86-10.84-.98-21.8-1.37-32.82-1.37-6.02,0-12.05.12-18.09.32-6.04.21-12.09.5-18.14.85-6.05.35-12.1.76-18.14,1.21s-12.07.91-18.09,1.38c-6.08.47-12.18.94-18.3,1.39-6.12.44-12.25.86-18.39,1.22-6.14.36-12.28.65-18.41.86-6.14.21-12.27.33-18.38.33-7.6,0-15.17-.18-22.71-.61-7.54-.43-15.03-1.1-22.47-2.07-7.44-.97-14.82-2.24-22.12-3.87s-14.53-3.62-21.67-6.02c-7.82-2.63-15.98-6.23-23.83-10.74-7.85-4.52-15.4-9.95-21.99-16.27-6.59-6.31-12.22-13.5-16.23-21.53-4.02-8.02-6.43-16.88-6.57-26.52-.07-4.76.41-9.41,1.34-13.99.92-4.58,2.28-9.08,3.96-13.55,1.67-4.46,3.66-8.88,5.83-13.28,2.17-4.4,4.53-8.79,6.95-13.2,13.09-23.77,26.62-47.35,40.58-70.69,13.96-23.34,28.35-46.44,43.13-69.27,14.78-22.83,29.97-45.38,45.52-67.61,15.55-22.23,31.48-44.14,47.75-65.7,9.72-12.88,20.32-26.21,31.8-38.96,11.48-12.75,23.83-24.92,37.05-35.47,13.22-10.56,27.31-19.51,42.27-25.82s30.78-9.98,47.47-9.98c3.83.06,4.22.08,4.6.09l-32-13.59"/>
        </g>
        <g>
          <path class="cls-7" d="M815.8-80.27c-.52.89-1,1.8-1.45,2.73s-.87,1.86-1.25,2.81c-.38.95-.74,1.92-1.05,2.9s-.6,1.98-.85,2.99c-.61,2.46-.44,5.84.37,10.02.81,4.18,2.27,9.15,4.23,14.78,1.96,5.63,4.41,11.93,7.22,18.77,2.81,6.83,5.97,14.2,9.34,21.98,1.31,3.01,2.57,5.92,3.75,8.66s2.27,5.33,3.24,7.69c.97,2.36,1.82,4.5,2.5,6.35.68,1.85,1.2,3.42,1.51,4.65,2.52,9.91,4.38,18.92,5.74,27.24s2.22,15.94,2.74,23.09c.53,7.15.72,13.82.74,20.22.03,6.4-.11,12.54-.25,18.63-.14,6.16-.28,12.37-.25,18.85.03,6.48.23,13.23.76,20.47.53,7.24,1.41,14.97,2.78,23.4,1.38,8.43,3.26,17.57,5.82,27.63.53,2.09,1.33,4.34,2.33,6.7s2.2,4.84,3.54,7.42c1.34,2.58,2.83,5.24,4.4,7.98,1.57,2.73,3.22,5.54,4.89,8.38,2.75,4.66,5.59,9.48,8.21,14.27s5.01,9.54,6.86,14.08c1.85,4.54,3.17,8.86,3.62,12.77.46,3.91.06,7.42-1.51,10.34-1.27,2.37-3.58,5.15-6.87,8.3-3.29,3.15-7.55,6.67-12.72,10.52-5.18,3.84-11.27,8.01-18.21,12.46-6.94,4.44-14.73,9.16-23.31,14.11-3.58,2.07-8.54,4.8-14.46,7.73-5.92,2.93-12.82,6.06-20.28,8.93-7.46,2.87-15.49,5.49-23.7,7.38-8.2,1.9-16.57,3.07-24.71,3.07-1.83-.02-2.29-.03-2.74-.05-1.82-.08-2.27-.11-2.72-.14l-10.84-.75c1.7.1,2.13.12,2.55.13,1.71.04,2.14.04,2.57.04,7.63,0,15.48-1.1,23.17-2.88,7.69-1.78,15.22-4.23,22.22-6.92,7-2.69,13.46-5.63,19.02-8.38,5.56-2.75,10.2-5.31,13.56-7.24,8.05-4.64,15.36-9.07,21.87-13.24,6.51-4.17,12.22-8.08,17.07-11.68,4.85-3.61,8.85-6.91,11.93-9.86,3.08-2.96,5.25-5.57,6.44-7.79,1.47-2.74,1.84-6.03,1.42-9.7s-1.66-7.72-3.4-11.98c-1.74-4.26-3.98-8.72-6.43-13.2s-5.12-9.01-7.7-13.38c-1.57-2.66-3.12-5.29-4.59-7.86-1.47-2.56-2.86-5.07-4.12-7.48-1.26-2.41-2.39-4.74-3.32-6.96-.94-2.21-1.68-4.32-2.18-6.28-2.4-9.44-4.17-18.01-5.46-25.91-1.29-7.91-2.11-15.15-2.61-21.94-.5-6.79-.69-13.12-.71-19.2-.03-6.08.1-11.9.24-17.68.13-5.71.26-11.47.24-17.47-.02-6.01-.21-12.26-.7-18.96-.49-6.7-1.3-13.85-2.57-21.66-1.27-7.8-3.02-16.25-5.38-25.55-.29-1.15-.78-2.62-1.42-4.36-.64-1.74-1.43-3.74-2.34-5.96-.91-2.21-1.94-4.64-3.04-7.21-1.11-2.58-2.29-5.3-3.51-8.13-3.16-7.29-6.13-14.21-8.76-20.62-2.63-6.41-4.94-12.32-6.77-17.6-1.83-5.28-3.2-9.94-3.96-13.86-.76-3.92-.92-7.09-.35-9.4.24-.95.5-1.88.8-2.8s.63-1.83.99-2.72.75-1.77,1.18-2.64.88-1.72,1.36-2.56l15.3-26.48"/>
          <path class="cls-7" d="M847.26-134.73c-.58,1.01-1.13,2.03-1.64,3.08-.51,1.04-.98,2.1-1.41,3.17-.43,1.07-.83,2.16-1.19,3.27s-.68,2.23-.96,3.37c-.69,2.78-.5,6.59.42,11.3.92,4.71,2.56,10.31,4.77,16.67,2.21,6.35,4.97,13.46,8.14,21.17,3.17,7.71,6.73,16.02,10.54,24.79,1.47,3.4,2.9,6.68,4.23,9.77,1.33,3.1,2.56,6.01,3.66,8.67,1.09,2.66,2.05,5.07,2.82,7.16.77,2.09,1.35,3.86,1.7,5.24,2.85,11.18,4.94,21.34,6.47,30.72,1.53,9.38,2.5,17.98,3.09,26.04.59,8.06.81,15.58.84,22.8.03,7.22-.13,14.15-.29,21.01-.16,6.94-.32,13.95-.28,21.26.03,7.31.25,14.92.86,23.09.6,8.16,1.59,16.88,3.14,26.39,1.55,9.51,3.68,19.82,6.57,31.16.6,2.36,1.5,4.89,2.62,7.55s2.48,5.46,3.99,8.37c1.51,2.9,3.19,5.91,4.96,9s3.63,6.24,5.52,9.45c3.1,5.26,6.3,10.69,9.25,16.09,2.95,5.4,5.65,10.76,7.74,15.88,2.09,5.12,3.57,9.99,4.09,14.4s.07,8.37-1.7,11.66c-1.43,2.67-4.04,5.81-7.74,9.36-3.71,3.56-8.51,7.53-14.35,11.86-5.84,4.34-12.7,9.04-20.53,14.05-7.83,5.01-16.62,10.34-26.29,15.92-4.04,2.33-9.63,5.41-16.31,8.71s-14.45,6.84-22.87,10.08c-8.42,3.24-17.48,6.19-26.72,8.33-9.25,2.14-18.69,3.47-27.87,3.47-2.07-.02-2.58-.03-3.09-.05-2.05-.09-2.56-.12-3.07-.16l-13.68-.95c1.9.11,2.38.13,2.86.15,1.92.04,2.4.05,2.88.05,8.54,0,17.32-1.24,25.93-3.23,8.61-1.99,17.03-4.73,24.87-7.75,7.83-3.01,15.06-6.3,21.28-9.38,6.22-3.07,11.41-5.94,15.17-8.11,9-5.19,17.18-10.15,24.47-14.81,7.28-4.66,13.67-9.04,19.1-13.07,5.43-4.03,9.9-7.73,13.35-11.04,3.45-3.31,5.87-6.23,7.2-8.71,1.65-3.06,2.06-6.74,1.58-10.85-.48-4.11-1.86-8.64-3.8-13.4-1.94-4.76-4.45-9.75-7.2-14.78s-5.73-10.08-8.61-14.97c-1.76-2.98-3.49-5.92-5.13-8.79-1.65-2.87-3.2-5.67-4.61-8.37-1.41-2.7-2.67-5.31-3.72-7.78-1.05-2.48-1.88-4.83-2.44-7.03-2.69-10.56-4.66-20.15-6.11-28.99-1.45-8.85-2.36-16.96-2.92-24.55-.56-7.6-.77-14.68-.8-21.48-.03-6.8.12-13.32.26-19.78.15-6.39.29-12.83.27-19.55-.03-6.72-.23-13.72-.78-21.22-.55-7.5-1.45-15.5-2.88-24.23-1.42-8.73-3.37-18.18-6.02-28.59-.33-1.29-.87-2.93-1.58-4.88s-1.6-4.19-2.62-6.66c-1.02-2.48-2.17-5.19-3.4-8.07-1.24-2.88-2.56-5.93-3.93-9.09-3.54-8.16-6.86-15.9-9.8-23.07-2.95-7.17-5.52-13.78-7.57-19.69-2.05-5.91-3.58-11.13-4.44-15.51s-1.03-7.93-.39-10.51c.26-1.06.56-2.1.9-3.13s.7-2.04,1.11-3.04.84-1.98,1.32-2.95.98-1.92,1.52-2.86l19.31-33.42"/>
          <path class="cls-7" d="M887.94-205.14c-.67,1.16-1.29,2.33-1.88,3.53-.58,1.19-1.12,2.41-1.62,3.64-.5,1.23-.95,2.48-1.36,3.75-.41,1.27-.78,2.56-1.1,3.86-.8,3.18-.57,7.56.48,12.96,1.05,5.4,2.94,11.83,5.47,19.11,2.53,7.29,5.7,15.43,9.33,24.27,3.63,8.84,7.72,18.37,12.08,28.43,1.69,3.89,3.32,7.65,4.85,11.2,1.52,3.55,2.94,6.89,4.19,9.94,1.25,3.05,2.35,5.82,3.23,8.21s1.55,4.43,1.95,6.01c3.26,12.82,5.66,24.47,7.42,35.23,1.76,10.76,2.87,20.62,3.55,29.86.68,9.24.93,17.87.96,26.15.03,8.28-.15,16.22-.33,24.09-.18,7.96-.36,15.99-.33,24.37.04,8.38.29,17.11.98,26.47.69,9.36,1.82,19.35,3.6,30.26,1.78,10.9,4.22,22.72,7.53,35.73.69,2.71,1.72,5.61,3.01,8.66,1.29,3.05,2.84,6.26,4.58,9.59s3.66,6.78,5.68,10.32c2.03,3.54,4.16,7.16,6.32,10.83,3.55,6.03,7.23,12.26,10.61,18.45,3.38,6.19,6.48,12.34,8.87,18.21,2.4,5.87,4.09,11.45,4.68,16.51.59,5.06.08,9.6-1.95,13.37-1.64,3.06-4.63,6.66-8.88,10.74-4.25,4.08-9.76,8.63-16.45,13.6-6.69,4.97-14.57,10.36-23.54,16.11s-19.05,11.85-30.15,18.25c-4.63,2.67-11.04,6.2-18.7,9.99-7.66,3.79-16.57,7.84-26.22,11.55-9.65,3.71-20.04,7.1-30.64,9.55-10.6,2.45-21.43,3.98-31.95,3.98-2.37-.02-2.96-.04-3.55-.06-2.35-.1-2.94-.14-3.52-.18l-17.8-1.23c2.16.12,2.7.15,3.24.17,2.18.05,2.72.05,3.27.05,9.69,0,19.66-1.4,29.43-3.66,9.77-2.26,19.33-5.37,28.22-8.79,8.89-3.42,17.1-7.15,24.15-10.64,7.05-3.49,12.95-6.74,17.22-9.2,10.22-5.9,19.5-11.52,27.77-16.81,8.27-5.29,15.52-10.26,21.68-14.83,6.16-4.58,11.24-8.77,15.15-12.53,3.91-3.75,6.66-7.07,8.18-9.89,1.87-3.47,2.34-7.65,1.8-12.31-.54-4.66-2.11-9.8-4.31-15.21s-5.06-11.07-8.17-16.77c-3.12-5.7-6.5-11.44-9.77-17-1.99-3.38-3.96-6.72-5.83-9.98-1.87-3.26-3.64-6.44-5.24-9.5s-3.03-6.02-4.22-8.84c-1.19-2.81-2.14-5.48-2.77-7.98-3.05-11.98-5.29-22.87-6.93-32.91-1.64-10.04-2.68-19.25-3.32-27.87-.64-8.62-.87-16.66-.91-24.38-.03-7.72.13-15.12.3-22.45.17-7.25.33-14.56.3-22.19-.03-7.63-.26-15.57-.89-24.08-.63-8.51-1.65-17.6-3.27-27.5-1.62-9.91-3.83-20.64-6.83-32.45-.37-1.46-.99-3.33-1.8-5.54-.81-2.21-1.82-4.75-2.97-7.56-1.16-2.81-2.46-5.89-3.86-9.16-1.4-3.27-2.91-6.73-4.46-10.32-4.02-9.26-7.78-18.04-11.13-26.18-3.34-8.14-6.27-15.64-8.6-22.35-2.33-6.71-4.06-12.63-5.03-17.6-.97-4.97-1.17-9-.44-11.93.3-1.2.64-2.39,1.02-3.56.38-1.17.8-2.32,1.26-3.45.46-1.13.96-2.25,1.49-3.35s1.11-2.18,1.73-3.25l25.12-43.49"/>
          <path class="cls-7" d="M941.84-298.43c-.78,1.35-1.51,2.73-2.19,4.12-.68,1.4-1.31,2.82-1.9,4.26-.58,1.44-1.11,2.9-1.59,4.39-.48,1.48-.91,2.99-1.29,4.51-.93,3.72-.67,8.84.56,15.15,1.23,6.31,3.43,13.83,6.39,22.35,2.96,8.52,6.67,18.04,10.91,28.38,4.25,10.33,9.03,21.48,14.13,33.24,1.98,4.55,3.88,8.95,5.67,13.1,1.78,4.15,3.44,8.06,4.9,11.63,1.47,3.57,2.74,6.8,3.77,9.6,1.03,2.8,1.81,5.18,2.28,7.03,3.81,14.99,6.62,28.61,8.68,41.19,2.05,12.58,3.35,24.11,4.15,34.91.79,10.81,1.09,20.89,1.13,30.57.04,9.68-.17,18.97-.38,28.17-.21,9.31-.42,18.7-.38,28.5.04,9.8.34,20.01,1.15,30.95.81,10.95,2.13,22.63,4.21,35.38,2.08,12.75,4.93,26.57,8.8,41.78.81,3.17,2.01,6.56,3.52,10.13s3.32,7.32,5.35,11.22c2.03,3.89,4.28,7.93,6.65,12.06,2.37,4.14,4.87,8.37,7.4,12.67,4.16,7.05,8.45,14.34,12.41,21.58,3.96,7.24,7.57,14.43,10.37,21.29,2.8,6.86,4.79,13.39,5.48,19.31.69,5.92.09,11.22-2.28,15.63-1.92,3.58-5.41,7.79-10.38,12.55-4.97,4.77-11.41,10.09-19.24,15.9-7.83,5.81-17.03,12.11-27.53,18.83-10.5,6.72-22.28,13.86-35.25,21.34-5.42,3.13-12.91,7.25-21.86,11.68-8.96,4.43-19.38,9.16-30.66,13.51-11.28,4.34-23.43,8.3-35.83,11.16-12.4,2.87-25.06,4.65-37.36,4.65-2.77-.03-3.46-.05-4.15-.07-2.75-.12-3.43-.16-4.12-.21l-24.02-1.66c2.49.14,3.11.17,3.74.19,2.51.06,3.14.06,3.77.06,11.19,0,22.69-1.62,33.96-4.23,11.27-2.61,22.31-6.2,32.57-10.15,10.26-3.95,19.73-8.25,27.87-12.28s14.95-7.78,19.87-10.62c11.79-6.8,22.5-13.29,32.04-19.4,9.54-6.11,17.91-11.83,25.02-17.12,7.11-5.28,12.97-10.12,17.49-14.46,4.52-4.33,7.69-8.16,9.43-11.41,2.16-4.01,2.7-8.83,2.07-14.21-.63-5.38-2.43-11.31-4.98-17.55-2.55-6.24-5.83-12.77-9.43-19.35-3.6-6.58-7.5-13.2-11.28-19.61-2.3-3.91-4.57-7.76-6.72-11.51s-4.2-7.43-6.04-10.97c-1.85-3.54-3.5-6.95-4.87-10.2-1.37-3.25-2.47-6.33-3.2-9.21-3.52-13.83-6.11-26.38-8-37.97-1.89-11.59-3.09-22.21-3.83-32.16-.73-9.95-1.01-19.23-1.05-28.13-.04-8.91.15-17.44.35-25.9.19-8.37.39-16.8.35-25.6-.04-8.8-.3-17.97-1.02-27.79-.72-9.82-1.9-20.3-3.77-31.73s-4.42-23.81-7.89-37.44c-.43-1.68-1.14-3.84-2.07-6.39-.94-2.55-2.1-5.48-3.43-8.73-1.33-3.24-2.84-6.79-4.46-10.57-1.62-3.77-3.35-7.77-5.15-11.91-4.64-10.69-8.98-20.82-12.84-30.21-3.86-9.39-7.23-18.05-9.92-25.79-2.69-7.74-4.69-14.57-5.81-20.31-1.12-5.74-1.36-10.39-.51-13.77.35-1.39.74-2.76,1.17-4.1s.92-2.68,1.45-3.99c.53-1.31,1.1-2.6,1.72-3.87.62-1.27,1.28-2.52,2-3.75l33.9-58.67"/>
          <path class="cls-7" d="M1018.8-431.65c-.94,1.63-1.83,3.29-2.65,4.98-.82,1.69-1.59,3.4-2.29,5.14-.7,1.74-1.34,3.5-1.92,5.29-.58,1.79-1.1,3.61-1.56,5.45-1.12,4.49-.81,10.66.68,18.28,1.49,7.62,4.14,16.69,7.71,26.97,3.57,10.28,8.05,21.77,13.17,34.24,5.12,12.47,10.9,25.92,17.05,40.11,2.38,5.49,4.69,10.8,6.84,15.81,2.15,5.01,4.15,9.72,5.92,14.03,1.77,4.31,3.31,8.21,4.56,11.59,1.24,3.38,2.19,6.25,2.75,8.48,4.6,18.09,7.99,34.53,10.47,49.71,2.48,15.18,4.04,29.09,5,42.13.96,13.04,1.31,25.21,1.36,36.9.05,11.69-.21,22.89-.46,33.99-.26,11.24-.51,22.57-.46,34.39.05,11.83.41,24.14,1.39,37.35.98,13.21,2.57,27.31,5.08,42.7,2.51,15.39,5.95,32.06,10.62,50.42.97,3.82,2.43,7.91,4.25,12.22,1.82,4.31,4.01,8.84,6.46,13.54s5.16,9.57,8.02,14.56c2.86,4.99,5.87,10.1,8.92,15.29,5.02,8.51,10.2,17.3,14.97,26.04,4.77,8.74,9.14,17.41,12.52,25.69,3.38,8.28,5.78,16.16,6.61,23.3s.11,13.54-2.75,18.87c-2.32,4.32-6.53,9.4-12.53,15.15-6,5.75-13.77,12.18-23.22,19.19-9.44,7.01-20.56,14.62-33.22,22.73-12.67,8.11-26.88,16.72-42.54,25.76-6.54,3.77-15.58,8.75-26.38,14.1-10.81,5.35-23.39,11.06-37,16.3-13.62,5.24-28.27,10.01-43.24,13.47-14.97,3.46-30.24,5.61-45.09,5.61-3.34-.03-4.17-.06-5.01-.08-3.32-.15-4.14-.2-4.97-.25l-34.33-2.38c2.95.17,3.69.2,4.43.23,2.97.07,3.72.07,4.47.07,13.25,0,26.87-1.92,40.22-5,13.35-3.09,26.43-7.34,38.57-12.02,12.15-4.68,23.37-9.77,33.01-14.54,9.64-4.77,17.71-9.21,23.54-12.58,13.97-8.06,26.65-15.74,37.95-22.98,11.3-7.23,21.21-14.02,29.64-20.28,8.43-6.26,15.36-11.99,20.71-17.12,5.35-5.13,9.11-9.66,11.18-13.51,2.55-4.75,3.2-10.46,2.46-16.83-.74-6.37-2.88-13.4-5.9-20.79-3.02-7.39-6.91-15.13-11.17-22.92-4.26-7.79-8.88-15.64-13.36-23.23-2.72-4.63-5.41-9.19-7.96-13.64-2.55-4.45-4.97-8.8-7.16-12.99s-4.14-8.23-5.76-12.08c-1.62-3.84-2.92-7.49-3.79-10.9-4.17-16.38-7.23-31.25-9.48-44.98-2.24-13.73-3.66-26.31-4.53-38.09-.87-11.78-1.19-22.77-1.24-33.32-.05-10.55.18-20.66.41-30.68.23-9.91.46-19.9.41-30.33-.04-10.42-.36-21.28-1.21-32.92-.86-11.64-2.25-24.05-4.46-37.59-2.21-13.54-5.23-28.21-9.34-44.35-.51-2-1.35-4.55-2.46-7.57-1.11-3.02-2.48-6.5-4.06-10.34-1.58-3.84-3.36-8.05-5.28-12.52-1.92-4.47-3.97-9.2-6.1-14.11-5.49-12.66-10.64-24.66-15.21-35.79-4.57-11.13-8.57-21.38-11.75-30.55-3.18-9.17-5.55-17.26-6.88-24.06-1.33-6.8-1.61-12.31-.6-16.31.41-1.64.87-3.26,1.39-4.86s1.09-3.17,1.72-4.72c.63-1.55,1.31-3.08,2.04-4.58s1.52-2.98,2.36-4.44l48.45-83.87"/>
        </g>
        <g>
          <path class="cls-6" d="M744.05,357.84c-3.95-.27-7.83-.86-11.58-1.81-3.75-.95-7.37-2.27-10.82-4.02-3.45-1.74-6.72-3.91-9.77-6.55-3.05-2.64-5.88-5.77-8.43-9.42-2.74-3.91-4.85-8.05-6.51-12.39-1.66-4.34-2.85-8.88-3.74-13.57-.89-4.69-1.46-9.53-1.89-14.49-.43-4.96-.7-10.02-.98-15.16-.15-2.8-.3-5.62-.48-8.46-.18-2.83-.39-5.67-.66-8.5s-.59-5.66-.99-8.46c-.4-2.8-.89-5.57-1.49-8.31-1.08-4.95-3.05-9.83-5.69-14.42-2.64-4.59-5.96-8.89-9.73-12.68-3.77-3.79-7.98-7.06-12.42-9.58-4.44-2.53-9.1-4.32-13.76-5.14-.45-.08-.9-.15-1.35-.21s-.89-.11-1.33-.15-.87-.07-1.31-.09-.86-.03-1.28-.03c-2.16,0-4.23.26-6.18.76-1.96.51-3.81,1.26-5.53,2.26-1.72,1-3.32,2.24-4.78,3.72-1.46,1.48-2.78,3.19-3.94,5.13-.23.38-.45.76-.66,1.15s-.41.78-.6,1.17-.37.79-.54,1.19-.34.81-.49,1.21l-2.95,7.76c.15-.38.3-.76.46-1.14s.33-.75.51-1.12.37-.74.56-1.1.4-.72.62-1.08c1.09-1.82,2.33-3.42,3.7-4.81,1.37-1.38,2.87-2.55,4.49-3.48,1.62-.94,3.35-1.65,5.19-2.12,1.84-.47,3.77-.72,5.8-.72.4,0,.8,0,1.2.03s.81.05,1.22.08.83.08,1.24.14.84.12,1.26.2c4.37.77,8.74,2.45,12.9,4.82,4.16,2.37,8.11,5.44,11.64,8.99s6.64,7.58,9.12,11.89c2.48,4.31,4.33,8.88,5.34,13.52.56,2.56,1.02,5.17,1.4,7.79.38,2.63.68,5.27.93,7.93.25,2.66.45,5.32.62,7.98.17,2.66.31,5.3.45,7.93.26,4.82.52,9.57.91,14.22.4,4.65.94,9.19,1.77,13.59.83,4.4,1.95,8.65,3.5,12.72s3.54,7.96,6.1,11.62c2.4,3.43,5.05,6.35,7.91,8.83,2.86,2.48,5.93,4.51,9.16,6.15s6.63,2.87,10.15,3.77,7.15,1.44,10.86,1.7l10.84.75"/>
          <path class="cls-6" d="M766.34,359.39c-4.46-.31-8.83-.97-13.06-2.04s-8.31-2.56-12.2-4.53c-3.89-1.97-7.58-4.41-11.02-7.39-3.44-2.98-6.63-6.5-9.51-10.62-3.08-4.41-5.47-9.08-7.34-13.98-1.87-4.9-3.21-10.01-4.21-15.3-1-5.29-1.65-10.75-2.13-16.34-.48-5.59-.79-11.3-1.1-17.1-.17-3.16-.34-6.34-.54-9.54s-.44-6.4-.74-9.59c-.3-3.19-.66-6.38-1.12-9.54-.46-3.16-1.01-6.29-1.68-9.37-1.21-5.58-3.44-11.08-6.42-16.26s-6.72-10.03-10.97-14.3-9-7.96-14-10.81c-5-2.85-10.26-4.87-15.52-5.8-.51-.09-1.02-.17-1.52-.24s-1-.12-1.49-.17-.99-.08-1.47-.1-.97-.03-1.45-.03c-2.44,0-4.77.29-6.97.86-2.21.57-4.29,1.42-6.24,2.55s-3.75,2.53-5.39,4.19-3.13,3.59-4.45,5.78c-.26.43-.5.86-.74,1.3s-.46.88-.67,1.32-.42.89-.61,1.35-.38.91-.55,1.37l-3.72,9.79c.16-.43.33-.85.51-1.27s.37-.84.57-1.25.41-.82.63-1.23.45-.81.69-1.21c1.22-2.03,2.61-3.83,4.14-5.38,1.53-1.55,3.21-2.85,5.02-3.9,1.81-1.05,3.75-1.84,5.8-2.37,2.05-.53,4.22-.8,6.49-.8.45,0,.89.01,1.35.03s.91.05,1.37.09.92.09,1.39.16.94.14,1.41.22c4.89.86,9.78,2.74,14.44,5.39s9.08,6.09,13.03,10.06,7.43,8.49,10.21,13.3c2.78,4.82,4.84,9.94,5.97,15.13.63,2.87,1.14,5.78,1.56,8.72.42,2.94.76,5.9,1.04,8.87.28,2.97.5,5.95.69,8.92s.35,5.94.51,8.87c.29,5.39.58,10.71,1.02,15.91s1.05,10.28,1.98,15.2c.93,4.92,2.18,9.68,3.92,14.24,1.74,4.55,3.96,8.9,6.83,13.01,2.68,3.83,5.65,7.11,8.85,9.88,3.2,2.77,6.64,5.05,10.25,6.88,3.62,1.83,7.42,3.22,11.35,4.22,3.93,1,8,1.62,12.15,1.9l13.68.95"/>
          <path class="cls-6" d="M795.15,361.38c-5.11-.35-10.12-1.11-14.97-2.34-4.85-1.23-9.53-2.94-13.99-5.19s-8.69-5.05-12.64-8.47-7.6-7.45-10.91-12.18c-3.54-5.05-6.28-10.41-8.42-16.03-2.14-5.61-3.68-11.48-4.83-17.54-1.15-6.06-1.89-12.33-2.45-18.74-.55-6.41-.9-12.96-1.26-19.61-.19-3.62-.39-7.27-.62-10.93-.23-3.66-.5-7.34-.85-11-.34-3.66-.76-7.31-1.28-10.93s-1.15-7.21-1.92-10.74c-1.39-6.4-3.94-12.71-7.36-18.64-3.42-5.94-7.71-11.5-12.58-16.39s-10.32-9.12-16.05-12.39c-5.74-3.27-11.77-5.58-17.79-6.65-.58-.1-1.16-.19-1.74-.27s-1.15-.14-1.71-.19-1.13-.09-1.69-.12-1.11-.04-1.66-.04c-2.79,0-5.46.33-8,.99-2.53.65-4.92,1.63-7.15,2.92s-4.3,2.9-6.18,4.8-3.59,4.12-5.1,6.63c-.3.49-.58.99-.85,1.49s-.53,1.01-.77,1.52-.48,1.03-.7,1.54-.43,1.04-.63,1.57l-4.84,12.74c.18-.49.38-.97.58-1.44s.42-.95.65-1.42.46-.94.71-1.4.51-.92.78-1.37c1.39-2.31,2.96-4.35,4.7-6.1,1.74-1.76,3.64-3.24,5.7-4.42s4.25-2.09,6.59-2.69c2.33-.6,4.79-.91,7.36-.91.51,0,1.02.01,1.53.04s1.03.06,1.55.11,1.05.11,1.58.18,1.06.16,1.6.25c5.55.98,11.1,3.11,16.39,6.12,5.28,3.01,10.3,6.91,14.79,11.42,4.48,4.51,8.43,9.63,11.58,15.1,3.15,5.47,5.5,11.28,6.78,17.17.71,3.26,1.29,6.56,1.77,9.89.48,3.33.86,6.7,1.18,10.07.32,3.37.57,6.76.78,10.13.22,3.37.4,6.74.57,10.07.33,6.12.65,12.16,1.16,18.06s1.2,11.67,2.25,17.26c1.06,5.59,2.48,10.99,4.45,16.16,1.97,5.17,4.5,10.11,7.75,14.76,3.04,4.35,6.41,8.07,10.05,11.22s7.53,5.73,11.64,7.8c4.11,2.08,8.42,3.65,12.89,4.78,4.47,1.14,9.08,1.83,13.79,2.16l17.8,1.23"/>
          <path class="cls-6" d="M833.34,364.03c-5.98-.41-11.84-1.3-17.51-2.74-5.67-1.44-11.15-3.44-16.36-6.07-5.21-2.64-10.16-5.91-14.78-9.91-4.61-4-8.89-8.72-12.75-14.24-4.14-5.91-7.34-12.18-9.84-18.74-2.5-6.56-4.31-13.42-5.65-20.51-1.34-7.09-2.21-14.41-2.86-21.91-.64-7.49-1.06-15.16-1.47-22.93-.23-4.23-.45-8.5-.73-12.79-.27-4.28-.59-8.58-.99-12.86-.4-4.28-.89-8.55-1.5-12.79-.61-4.23-1.35-8.43-2.25-12.56-1.63-7.48-4.61-14.86-8.61-21.8-4-6.94-9.01-13.45-14.71-19.17-5.69-5.72-12.06-10.67-18.77-14.49-6.71-3.82-13.76-6.53-20.81-7.77-.68-.12-1.36-.23-2.03-.32s-1.34-.17-2-.23-1.32-.11-1.97-.14-1.3-.05-1.94-.05c-3.27,0-6.39.39-9.35,1.15-2.96.77-5.75,1.91-8.36,3.42-2.61,1.51-5.02,3.39-7.23,5.62-2.21,2.23-4.2,4.82-5.96,7.75-.35.57-.68,1.15-.99,1.74s-.62,1.18-.9,1.77-.56,1.2-.82,1.81-.51,1.22-.74,1.83l-6.54,17.18c.21-.56.44-1.12.67-1.67s.49-1.1.75-1.64.54-1.08.82-1.61.59-1.06.9-1.58c1.6-2.66,3.41-5.02,5.42-7.04,2.01-2.03,4.2-3.73,6.57-5.11,2.37-1.37,4.91-2.41,7.6-3.11,2.69-.7,5.53-1.05,8.5-1.05.58,0,1.17.01,1.77.04s1.19.07,1.79.12,1.21.12,1.82.21c.61.08,1.23.18,1.85.29,6.41,1.13,12.81,3.59,18.91,7.06,6.1,3.48,11.89,7.97,17.06,13.17,5.17,5.2,9.73,11.11,13.37,17.42,3.63,6.31,6.35,13.02,7.82,19.82.82,3.76,1.49,7.57,2.05,11.42s1,7.73,1.36,11.62c.37,3.89.65,7.8.9,11.69.25,3.89.46,7.77.66,11.62.38,7.06.75,14.03,1.34,20.84.59,6.81,1.38,13.47,2.6,19.91,1.22,6.45,2.86,12.68,5.13,18.64,2.28,5.97,5.19,11.66,8.95,17.03,3.51,5.02,7.4,9.31,11.59,12.95,4.19,3.63,8.69,6.61,13.43,9.01,4.74,2.4,9.72,4.21,14.87,5.52,5.15,1.31,10.48,2.12,15.91,2.49l24.02,1.66"/>
          <path class="cls-6" d="M887.87,367.8c-7.22-.5-14.29-1.57-21.13-3.31-6.84-1.74-13.45-4.15-19.74-7.33-6.29-3.18-12.27-7.13-17.83-11.96-5.57-4.82-10.73-10.52-15.39-17.19-4.99-7.13-8.86-14.69-11.88-22.61-3.02-7.92-5.2-16.2-6.82-24.75-1.62-8.56-2.67-17.4-3.45-26.44-.78-9.04-1.28-18.29-1.78-27.67-.27-5.11-.55-10.26-.88-15.43-.33-5.17-.71-10.35-1.2-15.52-.48-5.17-1.07-10.32-1.81-15.43s-1.63-10.17-2.72-15.16c-1.96-9.02-5.56-17.93-10.39-26.31-4.83-8.38-10.88-16.23-17.75-23.13-6.87-6.91-14.56-12.87-22.65-17.49-8.1-4.62-16.6-7.88-25.11-9.38-.82-.15-1.64-.27-2.45-.38s-1.62-.2-2.42-.27c-.8-.07-1.59-.13-2.38-.16s-1.57-.05-2.34-.05c-3.94,0-7.71.47-11.28,1.39s-6.94,2.3-10.09,4.13c-3.15,1.82-6.06,4.09-8.73,6.78s-5.07,5.82-7.19,9.35c-.42.69-.82,1.39-1.2,2.1s-.75,1.42-1.09,2.14-.68,1.45-.99,2.18-.61,1.47-.89,2.21l-9.34,24.56c.25-.66.52-1.32.8-1.97s.57-1.3.88-1.94.63-1.28.97-1.91.7-1.26,1.07-1.87c1.89-3.16,4.04-5.94,6.42-8.34,2.38-2.4,4.98-4.42,7.79-6.05,2.81-1.63,5.82-2.86,9-3.68,3.19-.82,6.55-1.24,10.07-1.24.69,0,1.39.02,2.09.05s1.41.08,2.12.15c.71.07,1.43.15,2.16.24s1.45.21,2.19.34c7.59,1.34,15.18,4.25,22.4,8.37,7.22,4.12,14.08,9.44,20.21,15.6,6.13,6.16,11.53,13.16,15.83,20.64,4.31,7.47,7.52,15.42,9.27,23.47.97,4.45,1.76,8.97,2.42,13.52.66,4.56,1.18,9.15,1.61,13.76.43,4.61.77,9.23,1.07,13.84s.54,9.21.78,13.76c.45,8.36.89,16.61,1.59,24.68.69,8.07,1.64,15.95,3.08,23.59,1.44,7.63,3.39,15.02,6.08,22.08s6.14,13.81,10.6,20.17c4.16,5.95,8.76,11.03,13.73,15.33,4.97,4.3,10.29,7.83,15.91,10.67,5.61,2.84,11.51,4.99,17.61,6.54,6.1,1.55,12.41,2.51,18.85,2.95l34.33,2.38"/>
        </g>
        <g>
          <g>
            <path class="cls-1" d="M615.21,369.46c.06,8.99-.43,17.05-1.48,24.16-1.05,7.11-2.66,13.29-4.82,18.51-2.16,5.22-4.87,9.49-8.13,12.8-3.26,3.31-7.06,5.66-11.41,7.04l-1.22-5.36c4.08-1.3,7.65-3.5,10.7-6.6,3.06-3.1,5.6-7.11,7.62-12,2.02-4.9,3.53-10.68,4.52-17.36.99-6.67,1.45-14.23,1.39-22.66l2.83,1.47"/>
            <path class="cls-1" d="M617.45,370.63c.07,9.43-.45,17.89-1.56,25.35-1.1,7.47-2.79,13.94-5.06,19.42-2.27,5.48-5.11,9.96-8.53,13.43-3.42,3.47-7.41,5.94-11.98,7.39l1.54,6.76c4.91-1.56,9.2-4.21,12.87-7.94,3.67-3.73,6.73-8.55,9.17-14.44,2.43-5.89,4.25-12.85,5.43-20.87,1.19-8.02,1.75-17.11,1.67-27.25l-3.57-1.86"/>
            <path class="cls-1" d="M623.9,373.99c.08,10.71-.52,20.3-1.77,28.77-1.25,8.47-3.17,15.82-5.74,22.04-2.57,6.22-5.8,11.3-9.68,15.24-3.88,3.94-8.41,6.74-13.59,8.38l2.01,8.8c5.62-1.79,10.55-4.82,14.76-9.1,4.21-4.28,7.72-9.8,10.51-16.55,2.79-6.75,4.87-14.73,6.23-23.93,1.36-9.2,2-19.62,1.92-31.24l-4.65-2.42"/>
            <path class="cls-1" d="M632.25,378.33c.09,12.35-.59,23.43-2.04,33.2-1.45,9.78-3.65,18.26-6.62,25.43-2.97,7.17-6.69,13.04-11.17,17.59-4.48,4.55-9.71,7.78-15.69,9.68l2.71,11.87c6.58-2.09,12.33-5.64,17.26-10.64,4.93-5,9.02-11.46,12.29-19.35,3.26-7.89,5.69-17.23,7.28-27.98,1.59-10.76,2.34-22.94,2.24-36.53l-6.27-3.26"/>
            <path class="cls-1" d="M643.8,384.34c.1,14.63-.7,27.75-2.42,39.33-1.71,11.58-4.33,21.63-7.84,30.13-3.51,8.5-7.93,15.45-13.23,20.84-5.3,5.39-11.5,9.21-18.58,11.46l3.88,16.97c7.94-2.52,14.88-6.81,20.83-12.85s10.89-13.83,14.83-23.36c3.94-9.53,6.87-20.79,8.79-33.77,1.92-12.98,2.82-27.68,2.71-44.09l-8.96-4.66"/>
          </g>
          <path class="cls-1" d="M589.36,431.97c-.62.12-1.24.22-1.86.31-.62.09-1.23.16-1.84.22s-1.22.1-1.82.13-1.21.04-1.81.04c-7.44,0-14.44-2.18-21.14-6.01-6.7-3.84-13.1-9.34-19.32-15.99-6.22-6.65-12.26-14.44-18.26-22.87-5.99-8.43-11.94-17.49-17.96-26.67-5.26-8.02-10.55-16.1-15.98-23.91-5.43-7.81-10.99-15.35-16.79-22.3-5.8-6.95-11.83-13.31-18.2-18.77-6.37-5.45-13.07-10-20.21-13.32l8.42,3.91c6.7,3.11,12.98,7.37,18.96,12.49,5.97,5.12,11.63,11.08,17.07,17.6,5.44,6.52,10.65,13.59,15.74,20.91,5.09,7.32,10.05,14.9,14.98,22.42,5.65,8.61,11.22,17.11,16.84,25.01,5.62,7.9,11.29,15.22,17.12,21.45,5.83,6.23,11.83,11.39,18.12,14.99,6.28,3.6,12.85,5.64,19.83,5.64.56,0,1.13-.01,1.69-.04.57-.03,1.14-.07,1.71-.12.57-.05,1.15-.12,1.73-.2s1.16-.18,1.74-.29l1.22,5.36"/>
          <path class="cls-1" d="M591.88,442.98c-.7.13-1.4.25-2.1.35s-1.39.18-2.08.24c-.69.06-1.37.11-2.06.15s-1.36.05-2.04.05c-8.39,0-16.29-2.45-23.85-6.78-7.56-4.33-14.77-10.53-21.79-18.03-7.02-7.5-13.83-16.29-20.59-25.79-6.76-9.51-13.46-19.72-20.25-30.08-5.93-9.05-11.9-18.16-18.02-26.96-6.12-8.81-12.39-17.31-18.93-25.15-6.54-7.84-13.34-15.02-20.52-21.17-7.18-6.15-14.74-11.28-22.8-15.02l10.63,4.94c7.49,3.48,14.53,8.25,21.21,13.97,6.68,5.72,13.01,12.4,19.1,19.69,6.08,7.29,11.92,15.21,17.61,23.4,5.69,8.19,11.25,16.67,16.77,25.09,6.32,9.63,12.55,19.14,18.84,27.99,6.29,8.84,12.63,17.02,19.16,24s13.24,12.75,20.27,16.78c7.03,4.03,14.38,6.31,22.19,6.31.63,0,1.26-.01,1.9-.04s1.27-.07,1.91-.14,1.28-.14,1.93-.23,1.3-.2,1.95-.32l1.54,6.76"/>
          <path class="cls-1" d="M595.13,457.23c-43.53,7.59-75.15-40.6-108.63-91.62-33.82-51.53-56.88-84.05-92.03-101.23l13.83,6.42c8.51,3.95,16.49,9.36,24.07,15.86,7.58,6.5,14.77,14.07,21.67,22.35,6.9,8.28,13.53,17.26,19.99,26.56,6.46,9.3,12.77,18.92,19.03,28.47,7.17,10.93,14.25,21.73,21.39,31.76,7.14,10.04,14.34,19.32,21.74,27.24,7.41,7.92,15.03,14.47,23.01,19.04,7.98,4.57,16.32,7.16,25.18,7.16.71,0,1.43-.02,2.15-.05.72-.03,1.44-.09,2.17-.15s1.46-.15,2.19-.26,1.47-.23,2.21-.37l2.01,8.8"/>
          <path class="cls-1" d="M599.45,476.11c-.94.18-1.88.33-2.81.46-.93.13-1.86.24-2.78.33s-1.84.15-2.76.19-1.82.06-2.73.06c-11.24,0-21.84-3.29-31.97-9.09-10.13-5.8-19.81-14.12-29.21-24.17-9.41-10.05-18.54-21.84-27.6-34.58-9.06-12.74-18.05-26.45-27.15-40.33-7.95-12.13-15.95-24.34-24.16-36.15-8.21-11.81-16.61-23.2-25.38-33.71-8.77-10.51-17.89-20.13-27.51-28.38-9.63-8.25-19.77-15.12-30.56-20.14l18.66,8.67c35.25,18.19,57.85,46.66,95.2,103.6,38.61,58.88,71.96,109.73,118.07,101.36l2.71,11.87"/>
          <path class="cls-1" d="M605.6,503.06c-1.14.21-2.27.4-3.39.56-1.12.16-2.24.29-3.36.4-1.11.11-2.22.18-3.33.24-1.1.05-2.2.08-3.3.08-13.57,0-26.35-3.97-38.58-10.98-12.23-7-23.9-17.04-35.25-29.17-11.35-12.13-22.38-26.35-33.31-41.73-10.94-15.38-21.78-31.91-32.77-48.66-9.6-14.64-19.25-29.38-29.16-43.62-9.9-14.25-20.05-28-30.63-40.69-10.58-12.68-21.58-24.29-33.2-34.25-11.62-9.95-23.85-18.25-36.88-24.3l26.67,12.39c11.62,5.4,22.54,12.8,32.9,21.68,10.37,8.88,20.19,19.24,29.62,30.55,9.44,11.32,18.49,23.59,27.32,36.3,8.83,12.71,17.45,25.86,26.01,38.92,9.8,14.94,19.48,29.69,29.23,43.41,9.76,13.72,19.59,26.41,29.72,37.23,10.13,10.82,20.54,19.78,31.45,26.02,10.91,6.25,22.31,9.79,34.42,9.79.98,0,1.96-.02,2.94-.07s1.97-.12,2.97-.21,1.99-.21,3-.35c1-.14,2.01-.31,3.03-.5l3.88,16.97"/>
          <polyline class="cls-1" points="611.54 250.93 612.37 367.99 615.21 369.46 614.32 244.64 611.54 250.93"/>
          <polyline class="cls-1" points="616.52 239.65 617.45 370.63 621.03 372.49 620.03 231.71 616.52 239.65"/>
          <polyline class="cls-1" points="622.85 225.32 623.9 373.99 628.55 376.41 627.41 215 622.85 225.32"/>
          <polyline class="cls-1" points="631.03 206.78 632.25 378.33 638.52 381.59 637.18 192.86 631.03 206.78"/>
          <polyline class="cls-1" points="642.35 181.14 643.8 384.34 652.76 389 651.14 161.23 642.35 181.14"/>
          <g>
            <path class="cls-1" d="M617.13,221c-.73,1.93-1.28,3.91-1.68,5.93-.41,2.01-.67,4.05-.84,6.07-.17,2.02-.25,4.03-.28,5.98-.03,1.95-.02,3.85,0,5.67l-2.78,6.29c-.01-1.7-.03-3.48,0-5.31s.1-3.71.26-5.61.41-3.8.79-5.69c.38-1.89.89-3.75,1.58-5.56l2.95-7.75"/>
            <path class="cls-1" d="M623.2,205.06c-.83,2.17-1.44,4.41-1.9,6.68-.46,2.27-.76,4.56-.95,6.84-.19,2.28-.28,4.54-.32,6.74s-.02,4.35,0,6.39l-3.5,7.93c-.02-1.9-.03-3.9,0-5.94.03-2.05.12-4.15.3-6.27.18-2.12.46-4.26.88-6.37s1-4.2,1.77-6.22l3.72-9.79"/>
            <path class="cls-1" d="M631.04,184.44c-.95,2.49-1.65,5.06-2.18,7.66-.52,2.6-.87,5.23-1.09,7.84-.22,2.61-.32,5.21-.37,7.73-.04,2.53-.02,4.98,0,7.33l-4.56,10.32c-.02-2.16-.04-4.42,0-6.75.04-2.33.13-4.72.34-7.12.2-2.41.52-4.83,1-7.23.48-2.4,1.13-4.76,2.01-7.06l4.84-12.74"/>
            <path class="cls-1" d="M641.43,157.11c-1.11,2.91-1.93,5.92-2.55,8.96-.61,3.04-1.01,6.12-1.27,9.17s-.38,6.09-.43,9.04-.03,5.83,0,8.57l-6.15,13.93c-.02-2.49-.04-5.1,0-7.79.04-2.68.15-5.44.39-8.22.24-2.78.6-5.57,1.16-8.34s1.31-5.5,2.31-8.14l6.54-17.18"/>
            <path class="cls-1" d="M656.28,118.1c-4.58,12.92-5.29,23.75-5.13,43.13l-8.79,19.91c-.02-2.95-.05-6.04,0-9.22.05-3.18.18-6.45.46-9.73.28-3.29.71-6.6,1.37-9.88.66-3.27,1.55-6.51,2.74-9.65l9.34-24.56"/>
          </g>
        </g>
      </g>
    </g>
  </g>
  <g id="LOGO">
    <g>
      <path class="cls-8" d="M713.92,283.54c-6.86,0-12.87-1.6-18.03-4.8-5.16-3.2-9.19-7.76-12.09-13.7s-4.35-12.96-4.35-21.09,1.49-15.42,4.47-21.35c2.98-5.93,7.03-10.49,12.16-13.67,5.13-3.18,10.94-4.77,17.43-4.77,5.46,0,10.41,1.09,14.86,3.27,4.45,2.18,8.11,5.21,10.99,9.08,2.88,3.87,4.7,8.34,5.47,13.39h-13.64c-1.2-4.12-3.29-7.37-6.27-9.75-2.98-2.39-6.73-3.58-11.26-3.58-4,0-7.57,1.06-10.71,3.17-3.15,2.11-5.62,5.2-7.42,9.26-1.8,4.06-2.7,9.02-2.7,14.87,0,8.75,1.96,15.49,5.87,20.21,3.91,4.72,9,7.08,15.26,7.08,5.59,0,10.06-1.63,13.39-4.9,3.33-3.27,5.06-7.69,5.19-13.26h-17.18v-10.9h30.12v9.29c0,6.61-1.36,12.32-4.07,17.15-2.71,4.83-6.44,8.54-11.19,11.13-4.74,2.59-10.18,3.89-16.31,3.89Z"/>
      <path class="cls-8" d="M755.27,282.5v-58.01h12.59v9.7h.6c1-3.35,2.75-5.94,5.24-7.76,2.5-1.82,5.34-2.72,8.54-2.72,1.66,0,3.25.12,4.74.36v12.4c-.53-.14-1.4-.29-2.6-.44-1.2-.16-2.38-.23-3.55-.23-3.63,0-6.63,1.17-9.02,3.5-2.38,2.33-3.57,5.35-3.57,9.05v34.14h-12.99Z"/>
      <path class="cls-8" d="M815.74,283.69c-5.63,0-10.46-1.23-14.51-3.68-4.05-2.46-7.16-5.92-9.34-10.38-2.18-4.46-3.27-9.72-3.27-15.77s1.07-11.18,3.22-15.7c2.15-4.51,5.19-8.04,9.14-10.58,3.95-2.54,8.58-3.81,13.91-3.81,4.53,0,8.73,1.03,12.61,3.09,3.88,2.06,7,5.24,9.36,9.55,2.36,4.31,3.55,9.85,3.55,16.63v4.25h-38.86c.17,5.15,1.56,9.08,4.17,11.78,2.61,2.7,6,4.05,10.16,4.05,2.86,0,5.32-.64,7.37-1.92s3.5-3.15,4.37-5.6l11.94,2.54c-1.33,4.67-4.09,8.43-8.27,11.29-4.18,2.85-9.36,4.28-15.56,4.28ZM801.61,248.1h26.17c-.4-4.15-1.67-7.48-3.82-9.99-2.15-2.51-5.15-3.76-9.02-3.76s-7.1,1.32-9.41,3.97c-2.31,2.65-3.62,5.91-3.92,9.78Z"/>
      <path class="cls-8" d="M865.58,283.69c-3.53,0-6.71-.67-9.54-2-2.83-1.33-5.06-3.29-6.69-5.89-1.63-2.59-2.45-5.79-2.45-9.6,0-4.36,1.02-7.74,3.07-10.14,2.05-2.4,4.69-4.15,7.94-5.24s6.67-1.82,10.26-2.21c4.86-.55,8.37-1.06,10.54-1.53,2.16-.47,3.25-1.7,3.25-3.71v-.26c0-2.84-.83-5.04-2.5-6.62-1.67-1.57-4.08-2.36-7.24-2.36s-5.86.74-7.79,2.23c-1.93,1.49-3.23,3.18-3.9,5.08l-12.04-2.54c1.63-5.12,4.59-8.92,8.87-11.41,4.28-2.49,9.21-3.74,14.81-3.74,2.63,0,5.29.32,7.97.96,2.68.64,5.14,1.71,7.37,3.22,2.23,1.5,4.03,3.55,5.39,6.12,1.36,2.58,2.05,5.8,2.05,9.68v38.76h-12.44v-7.99h-.5c-1.23,2.49-3.2,4.64-5.89,6.46-2.7,1.82-6.21,2.72-10.54,2.72ZM868.92,273.68c4,0,7.18-1.19,9.56-3.58,2.38-2.39,3.57-5.19,3.57-8.41v-6.85c-.6.49-1.67.91-3.2,1.27-1.53.36-3.16.67-4.87.93-1.72.26-3.14.48-4.27.65-2.93.42-5.37,1.25-7.32,2.49s-2.92,3.2-2.92,5.86c0,2.49.88,4.38,2.65,5.68,1.76,1.3,4.03,1.95,6.79,1.95Z"/>
      <path class="cls-8" d="M932,224.49v10.58h-10.79v31.08c0,2.11.42,3.66,1.27,4.64.85.99,2.27,1.48,4.27,1.48.6,0,1.38-.08,2.35-.23.97-.16,1.76-.3,2.4-.44l2.05,10.43c-1.43.45-2.9.77-4.4.96-1.5.19-2.93.29-4.3.29-5.36,0-9.47-1.38-12.34-4.15-2.86-2.77-4.3-6.71-4.3-11.83v-32.22h-7.94v-10.58h7.94v-13.8h12.99v13.8h10.79Z"/>
      <path class="cls-8" d="M963.4,283.69c-5.63,0-10.46-1.23-14.51-3.68-4.05-2.46-7.16-5.92-9.34-10.38-2.18-4.46-3.27-9.72-3.27-15.77s1.07-11.18,3.22-15.7c2.15-4.51,5.19-8.04,9.14-10.58,3.95-2.54,8.58-3.81,13.91-3.81,4.53,0,8.73,1.03,12.61,3.09,3.88,2.06,7,5.24,9.36,9.55,2.36,4.31,3.55,9.85,3.55,16.63v4.25h-38.86c.17,5.15,1.56,9.08,4.17,11.78,2.61,2.7,6,4.05,10.16,4.05,2.86,0,5.32-.64,7.37-1.92s3.5-3.15,4.37-5.6l11.94,2.54c-1.33,4.67-4.09,8.43-8.27,11.29-4.18,2.85-9.36,4.28-15.56,4.28ZM949.27,248.1h26.17c-.4-4.15-1.67-7.48-3.82-9.99-2.15-2.51-5.15-3.76-9.02-3.76s-7.1,1.32-9.41,3.97c-2.31,2.65-3.62,5.91-3.92,9.78Z"/>
      <path class="cls-8" d="M996.65,282.5v-58.01h12.59v9.7h.6c1-3.35,2.75-5.94,5.24-7.76,2.5-1.82,5.34-2.72,8.54-2.72,1.66,0,3.25.12,4.74.36v12.4c-.53-.14-1.4-.29-2.6-.44-1.2-.16-2.38-.23-3.55-.23-3.63,0-6.63,1.17-9.02,3.5-2.38,2.33-3.57,5.35-3.57,9.05v34.14h-12.99Z"/>
      <path class="cls-8" d="M617.14,379.9v-77.31h28.47c5.36,0,9.81.87,13.36,2.62,3.55,1.75,6.21,4.13,7.99,7.16,1.78,3.03,2.67,6.46,2.67,10.3,0,4.7-1.26,8.41-3.77,11.1-2.51,2.7-5.59,4.48-9.21,5.34v.78c2.63.14,5.16.97,7.59,2.49,2.43,1.52,4.42,3.67,5.97,6.43,1.55,2.77,2.32,6.11,2.32,10.01s-.93,7.61-2.8,10.79c-1.87,3.18-4.67,5.69-8.42,7.52-3.75,1.83-8.47,2.75-14.16,2.75h-30.02ZM630.48,335.54h13.44c3.53,0,6.48-.99,8.84-2.98,2.36-1.99,3.55-4.7,3.55-8.12,0-3.01-1.02-5.48-3.05-7.42-2.03-1.94-5.04-2.91-9.04-2.91h-13.73v21.43ZM630.48,368.33h14.58c4.93,0,8.48-.99,10.66-2.96,2.18-1.97,3.27-4.5,3.27-7.58,0-3.46-1.22-6.36-3.65-8.72-2.43-2.35-5.71-3.53-9.84-3.53h-15.03v22.78Z"/>
      <path class="cls-8" d="M681.41,379.9v-58.01h12.59v9.7h.6c1-3.35,2.75-5.94,5.24-7.76,2.5-1.82,5.34-2.72,8.54-2.72,1.66,0,3.25.12,4.74.36v12.4c-.53-.14-1.4-.29-2.6-.44-1.2-.16-2.38-.23-3.55-.23-3.63,0-6.63,1.17-9.02,3.5-2.38,2.33-3.57,5.35-3.57,9.05v34.14h-12.99Z"/>
      <path class="cls-8" d="M726.95,313.7c-2.06,0-3.84-.72-5.32-2.15-1.48-1.43-2.22-3.19-2.22-5.27s.74-3.78,2.22-5.21c1.48-1.43,3.25-2.15,5.32-2.15s3.89.72,5.37,2.15c1.48,1.44,2.22,3.17,2.22,5.21s-.74,3.83-2.22,5.27c-1.48,1.44-3.27,2.15-5.37,2.15ZM720.46,379.9v-58.01h12.99v58.01h-12.99Z"/>
      <path class="cls-8" d="M765.8,381.1c-6.43,0-11.73-1.43-15.91-4.28-4.18-2.85-6.75-6.91-7.72-12.17l12.14-2.39c1.46,5.67,5.38,8.51,11.74,8.51,3.2,0,5.74-.67,7.62-2,1.88-1.33,2.82-2.98,2.82-4.95,0-3.29-2.51-5.5-7.54-6.64l-9.54-2.13c-10.46-2.35-15.68-7.76-15.68-16.24,0-3.6.95-6.71,2.85-9.34,1.9-2.63,4.54-4.67,7.92-6.12,3.38-1.45,7.3-2.18,11.76-2.18,6.33,0,11.33,1.37,15.01,4.1,3.68,2.73,6.08,6.35,7.22,10.84l-11.59,2.39c-.67-2.01-1.83-3.72-3.5-5.14-1.67-1.42-4-2.13-6.99-2.13-2.73,0-5.03.63-6.89,1.89-1.87,1.26-2.8,2.88-2.8,4.85,0,1.7.61,3.09,1.82,4.18,1.22,1.09,3.25,1.96,6.12,2.62l9.49,2.08c10.42,2.32,15.63,7.54,15.63,15.67,0,3.67-1.02,6.89-3.05,9.68-2.03,2.79-4.85,4.96-8.47,6.54-3.61,1.57-7.77,2.36-12.46,2.36Z"/>
      <path class="cls-8" d="M827.77,380.94c-3.2,0-5.85-.56-7.97-1.69-2.11-1.12-3.8-2.48-5.07-4.07-1.27-1.59-2.23-3.08-2.9-4.46h-.85v9.18h-12.69v-77.31h12.99v28.9h.55c.63-1.35,1.56-2.83,2.8-4.44,1.23-1.61,2.91-2.99,5.04-4.15,2.13-1.16,4.84-1.74,8.14-1.74,4.3,0,8.18,1.14,11.66,3.42,3.48,2.28,6.24,5.65,8.29,10.09,2.05,4.44,3.07,9.88,3.07,16.32s-1.01,11.78-3.02,16.24c-2.02,4.46-4.75,7.86-8.22,10.2-3.46,2.33-7.41,3.5-11.84,3.5ZM824.27,369.84c4.33,0,7.62-1.79,9.86-5.37s3.37-8.09,3.37-13.52-1.11-9.86-3.32-13.39c-2.21-3.53-5.52-5.29-9.91-5.29s-7.58,1.7-9.84,5.11c-2.26,3.41-3.4,7.93-3.4,13.57s1.15,10.2,3.45,13.67,5.56,5.21,9.79,5.21Z"/>
      <path class="cls-8" d="M876.16,381.1c-3.53,0-6.71-.67-9.54-2-2.83-1.33-5.06-3.29-6.69-5.89-1.63-2.59-2.45-5.79-2.45-9.6,0-4.36,1.02-7.74,3.07-10.14,2.05-2.4,4.69-4.15,7.94-5.24s6.67-1.82,10.26-2.21c4.86-.55,8.37-1.06,10.54-1.53,2.16-.47,3.25-1.7,3.25-3.71v-.26c0-2.84-.83-5.04-2.5-6.62-1.67-1.57-4.08-2.36-7.24-2.36s-5.86.74-7.79,2.23c-1.93,1.49-3.23,3.18-3.9,5.08l-12.04-2.54c1.63-5.12,4.59-8.92,8.87-11.41,4.28-2.49,9.21-3.74,14.81-3.74,2.63,0,5.29.32,7.97.96,2.68.64,5.14,1.71,7.37,3.22,2.23,1.5,4.03,3.55,5.39,6.12,1.36,2.58,2.05,5.8,2.05,9.68v38.76h-12.44v-7.99h-.5c-1.23,2.49-3.2,4.64-5.89,6.46-2.7,1.82-6.21,2.72-10.54,2.72ZM879.5,371.08c4,0,7.18-1.19,9.56-3.58,2.38-2.39,3.57-5.19,3.57-8.41v-6.85c-.6.49-1.67.91-3.2,1.27-1.53.36-3.16.67-4.87.93-1.72.26-3.14.48-4.27.65-2.93.42-5.37,1.25-7.32,2.49s-2.92,3.2-2.92,5.86c0,2.49.88,4.38,2.65,5.68,1.76,1.3,4.03,1.95,6.79,1.95Z"/>
      <path class="cls-8" d="M929.74,345.92v33.99h-12.99v-58.01h12.29l.15,11.57c3.33-8.2,9.09-12.3,17.28-12.3,5.76,0,10.38,1.9,13.86,5.71,3.48,3.8,5.22,9.18,5.22,16.14v36.89h-12.99v-34.82c0-3.87-.97-6.92-2.9-9.13-1.93-2.21-4.59-3.32-7.99-3.32s-6.32,1.16-8.57,3.48c-2.25,2.32-3.37,5.59-3.37,9.81Z"/>
      <path class="cls-8" d="M1001.45,381.1c-5.63,0-10.46-1.23-14.51-3.68-4.05-2.46-7.16-5.92-9.34-10.38-2.18-4.46-3.27-9.72-3.27-15.77s1.07-11.18,3.22-15.7c2.15-4.51,5.19-8.04,9.14-10.58,3.95-2.54,8.58-3.81,13.91-3.81,4.53,0,8.73,1.03,12.61,3.09,3.88,2.06,7,5.24,9.36,9.55,2.36,4.31,3.55,9.85,3.55,16.63v4.25h-38.86c.17,5.15,1.56,9.08,4.17,11.78,2.61,2.7,6,4.05,10.16,4.05,2.86,0,5.32-.64,7.37-1.92s3.5-3.15,4.37-5.6l11.94,2.54c-1.33,4.67-4.09,8.43-8.27,11.29-4.18,2.85-9.36,4.28-15.56,4.28ZM987.31,345.5h26.17c-.4-4.15-1.67-7.48-3.82-9.99-2.15-2.51-5.15-3.76-9.02-3.76s-7.1,1.32-9.41,3.97c-2.31,2.65-3.62,5.91-3.92,9.78Z"/>
    </g>
  </g>
  <g id="Layer_6" data-name="Layer 6">
    <g>
      <polygon class="cls-3" points="530.84 289.34 431 291.11 458.63 319.6 500.4 318.86 498.37 360.59 526 389.09 530.84 289.34"/>
      <polygon class="cls-3" points="583.75 238.05 483.9 239.81 511.53 268.31 553.3 267.57 551.27 309.3 578.9 337.79 583.75 238.05"/>
      <polygon class="cls-3" points="636.65 186.75 536.81 188.52 564.43 217.01 606.2 216.28 604.18 258 631.8 286.5 636.65 186.75"/>
    </g>
  </g>
</svg>